<?xml version="1.0" encoding="utf-8"?>
<!-- Generator: Adobe Illustrator 28.0.0, SVG Export Plug-In . SVG Version: 6.00 Build 0)  -->
<svg version="1.1" id="Layer_1" xmlns="http://www.w3.org/2000/svg" xmlns:xlink="http://www.w3.org/1999/xlink" x="0px" y="0px"
	 viewBox="0 0 1000 1000" style="enable-background:new 0 0 1000 1000;" xml:space="preserve">
<style type="text/css">
	.st0{fill:#00005A;}
	.st1{fill:#A1A2FF;}
</style>
<g>
	<path class="st0" d="M944.28,1000H55.72C24.95,1000,0,975.06,0,944.28V55.72C0,24.94,24.95,0,55.72,0h888.57
		C975.05,0,1000,24.94,1000,55.72v888.57C1000,975.06,975.05,1000,944.28,1000z"/>
	<g>
		<path class="st1" d="M375.11,289.09h-61.52h-33.74L143.96,721.97h95.26l34.15-108.77h141.96l34.15,108.77h95.26L408.85,289.09
			H375.11z M296.66,538.98l47.68-151.9l47.68,151.9H296.66z"/>
		<path class="st1" d="M873.07,570.73c0,0,9.22-127.04-77.87-176.22c-87.09-49.18-210.03,0.74-228.47,111.02
			c-18.44,110.28,44.34,216.44,153.31,216.44c54.49,0,86.68-6.09,110.85-21.19v-63.51c0,0-43.04,11.75-98.37,11.32
			c-81.11-0.63-76.08-75.46-76.08-75.46L873.07,570.73z M718.44,452.74c56.63,0,59.05,62.81,59.05,62.81H659.11
			C659.11,515.55,661.8,452.74,718.44,452.74z"/>
	</g>
</g>
</svg>
