<?xml version="1.0" encoding="utf-8"?>
<!-- Generator: Adobe Illustrator 28.0.0, SVG Export Plug-In . SVG Version: 6.00 Build 0)  -->
<svg version="1.1" id="Layer_1" xmlns="http://www.w3.org/2000/svg" xmlns:xlink="http://www.w3.org/1999/xlink" x="0px" y="0px"
	 viewBox="0 0 1000 1000" style="enable-background:new 0 0 1000 1000;" xml:space="preserve">
<style type="text/css">
	.st0{fill:#3A0000;}
	.st1{fill:#FF9200;}
</style>
<g>
	<path class="st0" d="M944.28,1000H55.72C24.94,1000,0,975.06,0,944.28V55.72C0,24.94,24.94,0,55.72,0h888.57
		C975.06,0,1000,24.94,1000,55.72v888.57C1000,975.06,975.06,1000,944.28,1000z"/>
	<g>
		<path class="st1" d="M452.11,289.09h-61.52h-33.74L220.96,721.97h95.26l34.15-108.77h141.96l34.15,108.77h95.26L485.84,289.09
			H452.11z M373.66,538.98l47.68-151.9l47.68,151.9H373.66z"/>
		<rect x="674.52" y="390.67" class="st1" width="81.03" height="331.29"/>
		<circle class="st1" cx="715.04" cy="309.19" r="56.5"/>
	</g>
</g>
</svg>
