<?xml version="1.0" encoding="UTF-8"?>
<svg version="1.1" xmlns="http://www.w3.org/2000/svg" width="64" height="64">
<path d="M0 0 C0.7734375 -0.00773438 1.546875 -0.01546875 2.34375 -0.0234375 C5.00414788 0.46815776 5.91331254 1.20856136 7.5 3.375 C7.5 4.365 7.5 5.355 7.5 6.375 C8.015625 5.88 8.53125 5.385 9.0625 4.875 C12.41034349 2.81478862 14.64014247 2.88374541 18.5 3.375 C20.5 5 20.5 5 21.5 7.375 C21.1875 10.625 21.1875 10.625 20.5 13.375 C21.77875 13.6225 23.0575 13.87 24.375 14.125 C28.29173989 15.07996485 28.29173989 15.07996485 30 17.5 C30.2475 18.428125 30.2475 18.428125 30.5 19.375 C31.28375 18.88 32.0675 18.385 32.875 17.875 C35.5 16.375 35.5 16.375 37.5 16.375 C37.5 23.635 37.5 30.895 37.5 38.375 C34.86 37.055 32.22 35.735 29.5 34.375 C29.17 35.695 28.84 37.015 28.5 38.375 C24.97844036 40.72270643 22.99228157 40.75169614 18.8125 41 C17.04326172 41.11214844 17.04326172 41.11214844 15.23828125 41.2265625 C14.33464844 41.27554688 13.43101563 41.32453125 12.5 41.375 C14.08181786 44.067304 15.03407728 45.55222263 17.5 47.375 C21.59529218 48.28072572 25.63063955 48.25977641 29.8125 48.25 C30.93462891 48.270625 32.05675781 48.29125 33.21289062 48.3125 C35.97600293 48.3595317 38.7365698 48.37944741 41.5 48.375 C41.005 49.365 41.005 49.365 40.5 50.375 C20.7 50.375 0.9 50.375 -19.5 50.375 C-19.83 49.715 -20.16 49.055 -20.5 48.375 C-18.83710938 48.33632812 -18.83710938 48.33632812 -17.140625 48.296875 C-15.67704453 48.24058344 -14.21350438 48.18323633 -12.75 48.125 C-12.02039062 48.11082031 -11.29078125 48.09664062 -10.5390625 48.08203125 C-6.90595478 47.91688999 -4.91550752 47.73076134 -2.109375 45.328125 C-1.57828125 44.68359375 -1.0471875 44.0390625 -0.5 43.375 C0.16 43.375 0.82 43.375 1.5 43.375 C1.5 42.385 1.5 41.395 1.5 40.375 C0.61957031 40.40980469 -0.26085937 40.44460937 -1.16796875 40.48046875 C-2.32941406 40.50753906 -3.49085937 40.53460938 -4.6875 40.5625 C-6.41033203 40.61470703 -6.41033203 40.61470703 -8.16796875 40.66796875 C-12.02091933 40.32919818 -13.74821166 40.13699905 -16.5 37.375 C-17.20087379 34.02900726 -17.10549376 30.77957135 -17 27.375 C-17.00386719 26.00214844 -17.00386719 26.00214844 -17.0078125 24.6015625 C-16.90991332 17.92483862 -16.90991332 17.92483862 -15.20117188 15.6328125 C-12.54053624 13.66559166 -9.72530559 13.67927411 -6.5 13.375 C-6.850625 12.83875 -7.20125 12.3025 -7.5625 11.75 C-8.82245845 8.55810525 -8.40606087 6.65075855 -7.5 3.375 C-5.24920785 0.43165641 -3.65409013 -0.0365409 0 0 Z M7.5 9.375 C6.84 11.025 6.18 12.675 5.5 14.375 C6.82 14.375 8.14 14.375 9.5 14.375 C9.17 12.725 8.84 11.075 8.5 9.375 C8.17 9.375 7.84 9.375 7.5 9.375 Z M-1.5 48.375 C3.78 48.375 9.06 48.375 14.5 48.375 C11.2934079 43.43702481 11.2934079 43.43702481 8.5 42.7109375 C7.84 42.72382812 7.18 42.73671875 6.5 42.75 C5.51 42.73066406 5.51 42.73066406 4.5 42.7109375 C1.7065921 43.43702481 1.7065921 43.43702481 -1.5 48.375 Z " fill="#565389" transform="translate(21.5,5.625)"/>
<path d="M0 0 C1.59752849 0.00031727 3.19507824 0.01165096 4.79248047 0.03173828 C6.05341019 0.03598312 6.05341019 0.03598312 7.33981323 0.04031372 C10.02990843 0.05152648 12.71967307 0.07663275 15.40966797 0.10205078 C17.23127775 0.11207918 19.05289274 0.12120527 20.87451172 0.12939453 C25.34469155 0.15146937 29.81462368 0.18600644 34.28466797 0.22705078 C35.9938017 3.64531825 35.46925276 7.46059841 35.47216797 11.22705078 C35.48441406 12.05978516 35.49666016 12.89251953 35.50927734 13.75048828 C35.51121094 14.54712891 35.51314453 15.34376953 35.51513672 16.16455078 C35.51924561 16.89544922 35.52335449 17.62634766 35.52758789 18.37939453 C35.28466797 20.22705078 35.28466797 20.22705078 33.28466797 22.22705078 C30.51149438 22.43911034 27.8406876 22.53102219 25.06591797 22.52783203 C24.25223755 22.53211716 23.43855713 22.53640228 22.60021973 22.54081726 C20.87867158 22.54656415 19.15709916 22.54705818 17.43554688 22.54272461 C14.79499117 22.53956314 12.1555539 22.56302342 9.51513672 22.58837891 C7.84456522 22.59065164 6.1739907 22.59135551 4.50341797 22.59033203 C3.71068481 22.59954178 2.91795166 22.60875153 2.10119629 22.61824036 C-0.12353516 22.59936523 -0.12353516 22.59936523 -3.71533203 22.22705078 C-6.29061451 18.36412707 -6.00987674 15.137582 -5.96533203 10.66455078 C-5.97306641 9.88402344 -5.98080078 9.10349609 -5.98876953 8.29931641 C-5.96138384 0.36431114 -5.96138384 0.36431114 0 0 Z " fill="#CBCBCC" transform="translate(14.71533203125,21.77294921875)"/>
<path d="M0 0 C0.7734375 -0.00773438 1.546875 -0.01546875 2.34375 -0.0234375 C5.00414788 0.46815776 5.91331254 1.20856136 7.5 3.375 C7.5 4.365 7.5 5.355 7.5 6.375 C8.015625 5.88 8.53125 5.385 9.0625 4.875 C12.41034349 2.81478862 14.64014247 2.88374541 18.5 3.375 C20.5 5.125 20.5 5.125 21.5 7.375 C21.1875 9.625 21.1875 9.625 20.5 11.375 C19.51 9.395 18.52 7.415 17.5 5.375 C15.08354218 5.20812552 15.08354218 5.20812552 12.5 5.375 C11.84 6.035 11.18 6.695 10.5 7.375 C10.82326553 10.97179066 10.82326553 10.97179066 11.5 14.375 C10.84 14.375 10.18 14.375 9.5 14.375 C8.84 13.715 8.18 13.055 7.5 12.375 C6.87943726 13.10384399 6.87943726 13.10384399 6.24633789 13.84741211 C3.33321143 16.39563415 -0.36023515 15.8729792 -4.0625 15.9375 C-9.79425087 15.70495583 -9.79425087 15.70495583 -14.5 18.375 C-14.94360072 21.33352109 -14.82412652 24.32448451 -14.8125 27.3125 C-14.82861328 28.13685547 -14.84472656 28.96121094 -14.86132812 29.81054688 C-14.86197266 30.60396484 -14.86261719 31.39738281 -14.86328125 32.21484375 C-14.86626221 32.94050537 -14.86924316 33.66616699 -14.87231445 34.41381836 C-14.40261704 36.88796875 -13.39662572 37.783038 -11.5 39.375 C-15.375 38.5 -15.375 38.5 -16.5 37.375 C-16.77818549 34.0915682 -16.73177691 30.79382268 -16.75 27.5 C-16.770625 26.57574219 -16.79125 25.65148437 -16.8125 24.69921875 C-16.81765625 23.81105469 -16.8228125 22.92289063 -16.828125 22.0078125 C-16.8374707 21.19199707 -16.84681641 20.37618164 -16.85644531 19.53564453 C-16.41029279 16.83122687 -15.69355699 15.98289857 -13.5 14.375 C-9.8125 13.6875 -9.8125 13.6875 -6.5 13.375 C-6.850625 12.83875 -7.20125 12.3025 -7.5625 11.75 C-8.82245845 8.55810525 -8.40606087 6.65075855 -7.5 3.375 C-5.24920785 0.43165641 -3.65409013 -0.0365409 0 0 Z " fill="#5971CB" transform="translate(21.5,5.625)"/>
<path d="M0 0 C4.62 0 9.24 0 14 0 C14.33 0.66 14.66 1.32 15 2 C17.91652174 2.16681109 17.91652174 2.16681109 21 2 C21.66 1.34 22.32 0.68 23 0 C26.2578125 -0.1953125 26.2578125 -0.1953125 30.125 -0.125 C32.04699219 -0.09792969 32.04699219 -0.09792969 34.0078125 -0.0703125 C35.48894531 -0.03550781 35.48894531 -0.03550781 37 0 C37 0.33 37 0.66 37 1 C30.565 1.495 30.565 1.495 24 2 C25.58181786 4.692304 26.53407728 6.17722263 29 8 C33.09529218 8.90572572 37.13063955 8.88477641 41.3125 8.875 C42.99569336 8.9059375 42.99569336 8.9059375 44.71289062 8.9375 C47.47600293 8.9845317 50.2365698 9.00444741 53 9 C52.67 9.66 52.34 10.32 52 11 C32.2 11 12.4 11 -8 11 C-8.33 10.34 -8.66 9.68 -9 9 C-7.33710937 8.96132813 -7.33710937 8.96132813 -5.640625 8.921875 C-4.17704453 8.86558344 -2.71350438 8.80823633 -1.25 8.75 C-0.15558594 8.72873047 -0.15558594 8.72873047 0.9609375 8.70703125 C4.59404522 8.54188999 6.58449248 8.35576134 9.390625 5.953125 C9.92171875 5.30859375 10.4528125 4.6640625 11 4 C11.66 4 12.32 4 13 4 C13 3.01 13 2.02 13 1 C8.71 1 4.42 1 0 1 C0 0.67 0 0.34 0 0 Z M10 9 C15.28 9 20.56 9 26 9 C22.7934079 4.06202481 22.7934079 4.06202481 20 3.3359375 C19.34 3.34882812 18.68 3.36171875 18 3.375 C17.01 3.35566406 17.01 3.35566406 16 3.3359375 C13.2065921 4.06202481 13.2065921 4.06202481 10 9 Z " fill="#3D3474" transform="translate(10,45)"/>
<path d="M0 0 C7.92 0 15.84 0 24 0 C24 1.98 24 3.96 24 6 C16.08 6 8.16 6 0 6 C0 4.02 0 2.04 0 0 Z " fill="#F6AE23" transform="translate(16,28)"/>
<path d="M0 0 C0.7734375 -0.00773438 1.546875 -0.01546875 2.34375 -0.0234375 C5.00414788 0.46815776 5.91331254 1.20856136 7.5 3.375 C7.5 4.365 7.5 5.355 7.5 6.375 C8.015625 5.88 8.53125 5.385 9.0625 4.875 C12.41034349 2.81478862 14.64014247 2.88374541 18.5 3.375 C20.5 5.125 20.5 5.125 21.5 7.375 C21.1875 9.625 21.1875 9.625 20.5 11.375 C19.51 9.395 18.52 7.415 17.5 5.375 C15.08354218 5.20812552 15.08354218 5.20812552 12.5 5.375 C11.84 6.035 11.18 6.695 10.5 7.375 C10.82326553 10.97179066 10.82326553 10.97179066 11.5 14.375 C10.84 14.375 10.18 14.375 9.5 14.375 C8.84 13.715 8.18 13.055 7.5 12.375 C6.87943726 13.10384399 6.87943726 13.10384399 6.24633789 13.84741211 C3.33321143 16.39563415 -0.36023515 15.8729792 -4.0625 15.9375 C-9.79425087 15.70495583 -9.79425087 15.70495583 -14.5 18.375 C-14.94360072 21.33352109 -14.82412652 24.32448451 -14.8125 27.3125 C-14.82861328 28.13685547 -14.84472656 28.96121094 -14.86132812 29.81054688 C-14.86197266 30.60396484 -14.86261719 31.39738281 -14.86328125 32.21484375 C-14.86626221 32.94050537 -14.86924316 33.66616699 -14.87231445 34.41381836 C-14.40261704 36.88796875 -13.39662572 37.783038 -11.5 39.375 C-15.375 38.5 -15.375 38.5 -16.5 37.375 C-16.77818549 34.0915682 -16.73177691 30.79382268 -16.75 27.5 C-16.770625 26.57574219 -16.79125 25.65148437 -16.8125 24.69921875 C-16.81765625 23.81105469 -16.8228125 22.92289063 -16.828125 22.0078125 C-16.8374707 21.19199707 -16.84681641 20.37618164 -16.85644531 19.53564453 C-16.41029279 16.83122687 -15.69355699 15.98289857 -13.5 14.375 C-9.8125 13.6875 -9.8125 13.6875 -6.5 13.375 C-6.850625 12.83875 -7.20125 12.3025 -7.5625 11.75 C-8.82245845 8.55810525 -8.40606087 6.65075855 -7.5 3.375 C-5.24920785 0.43165641 -3.65409013 -0.0365409 0 0 Z M-6.5 4.375 C-6.93060657 7.81985259 -7.13335287 10.22006242 -5.4375 13.3125 C-2.38023824 14.9890629 0.0906288 14.74028977 3.5 14.375 C5.58333333 13.45833333 5.58333333 13.45833333 6.5 11.375 C7.00548595 6.7100149 7.00548595 6.7100149 5.375 2.4375 C1.13554389 0.03514154 -3.38058463 0.65569706 -6.5 4.375 Z " fill="#474584" transform="translate(21.5,5.625)"/>
<path d="M0 0 C8.58 0 17.16 0 26 0 C26 2.97 26 5.94 26 9 C20.06 9.33 14.12 9.66 8 10 C8.33 11.32 8.66 12.64 9 14 C5.62182575 14.84454356 3.32534757 15.10844919 0 14 C0.66 12.68 1.32 11.36 2 10 C1.34 9.34 0.68 8.68 0 8 C0 5.36 0 2.72 0 0 Z M1 1 C1 2.98 1 4.96 1 7 C8.92 7 16.84 7 25 7 C25 5.02 25 3.04 25 1 C17.08 1 9.16 1 1 1 Z " fill="#9E8A86" transform="translate(15,27)"/>
<path d="M0 0 C0.83920486 0.00424484 1.67840973 0.00848969 2.54304504 0.01286316 C5.2230337 0.02965411 7.90226995 0.06730645 10.58203125 0.10546875 C12.39907768 0.12051508 14.2161359 0.13420357 16.03320312 0.14648438 C20.48726901 0.17955893 24.94077257 0.23134362 29.39453125 0.29296875 C29.39453125 0.62296875 29.39453125 0.95296875 29.39453125 1.29296875 C28.30922119 1.3180249 27.22391113 1.34308105 26.10571289 1.36889648 C22.09321525 1.4628063 18.08089743 1.56306642 14.06860352 1.6652832 C12.32938837 1.70869448 10.5901289 1.75036487 8.85083008 1.7902832 C6.35614637 1.84783643 3.86168715 1.91157295 1.3671875 1.9765625 C0.58489273 1.99327499 -0.19740204 2.00998749 -1.00340271 2.02720642 C-4.60418656 1.79945606 -4.60418656 1.79945606 -7.60546875 3.29296875 C-7.70574297 6.09474841 -7.74420164 8.86645987 -7.73046875 11.66796875 C-7.73433594 12.44914062 -7.73820313 13.2303125 -7.7421875 14.03515625 C-7.7364779 17.36956335 -7.6667788 20.10903861 -6.60546875 23.29296875 C-10.48046875 22.41796875 -10.48046875 22.41796875 -11.60546875 21.29296875 C-11.7590414 18.32192862 -11.83714996 15.39019322 -11.85546875 12.41796875 C-11.87609375 11.58910156 -11.89671875 10.76023437 -11.91796875 9.90625 C-11.923125 9.10832031 -11.92828125 8.31039063 -11.93359375 7.48828125 C-11.94293945 6.75625488 -11.95228516 6.02422852 -11.96191406 5.27001953 C-10.8440348 -0.93038204 -5.06785368 -0.09619715 0 0 Z " fill="#AEADB3" transform="translate(17.60546875,20.70703125)"/>
<path d="M0 0 C0 5.94 0 11.88 0 18 C-3.465 16.02 -3.465 16.02 -7 14 C-7.29035556 10.61897078 -7.4386474 7.37177161 -7 4 C-3.38095238 0 -3.38095238 0 0 0 Z " fill="#CFCED0" transform="translate(58,24)"/>
<path d="M0 0 C2.5 0.25 2.5 0.25 4.5 2.25 C4.75 5.25 4.75 5.25 4.5 8.25 C2.5 10.25 2.5 10.25 -0.5 10.5625 C-1.49 10.459375 -2.48 10.35625 -3.5 10.25 C-5.5 7.25 -5.5 7.25 -5.25 4.6875 C-4.24098289 1.40819438 -3.4742892 0.34742892 0 0 Z " fill="#5693C2" transform="translate(36.5,9.75)"/>
<path d="M0 0 C1.32 0 2.64 0 4 0 C5.70913373 3.41826747 5.18458479 7.23354763 5.1875 11 C5.19974609 11.83273438 5.21199219 12.66546875 5.22460938 13.5234375 C5.22654297 14.32007813 5.22847656 15.11671875 5.23046875 15.9375 C5.23457764 16.66839844 5.23868652 17.39929688 5.24291992 18.15234375 C5 20 5 20 3 22 C2.01 21.67 1.02 21.34 0 21 C0.33 20.34 0.66 19.68 1 19 C1.09825199 16.15647179 1.13900483 13.34297958 1.125 10.5 C1.12886719 9.71496094 1.13273437 8.92992187 1.13671875 8.12109375 C1.23807619 3.92729677 1.23807619 3.92729677 0 0 Z " fill="#E0E0E0" transform="translate(45,22)"/>
<path d="M0 0 C11.88 0 23.76 0 36 0 C36 0.33 36 0.66 36 1 C35.08476563 1.04898438 34.16953125 1.09796875 33.2265625 1.1484375 C32.03804687 1.22320312 30.84953125 1.29796875 29.625 1.375 C27.84996094 1.47941406 27.84996094 1.47941406 26.0390625 1.5859375 C22.89437681 1.70217346 22.89437681 1.70217346 21 4 C17.875 4.125 17.875 4.125 15 4 C14.67 3.01 14.34 2.02 14 1 C9.38 1 4.76 1 0 1 C0 0.67 0 0.34 0 0 Z " fill="#675E8A" transform="translate(10,44)"/>
<path d="M0 0 C4.75 0.75 4.75 0.75 7 3 C7.55186722 9.07053942 7.55186722 9.07053942 5.8125 12 C4 13 4 13 1.375 12.8125 C-1 12 -1 12 -2 10 C-0.35 9.67 1.3 9.34 3 9 C3 7.35 3 5.7 3 4 C1.35 3.67 -0.3 3.34 -2 3 C-1.34 2.01 -0.68 1.02 0 0 Z " fill="#61B3E1" transform="translate(21,7)"/>
<path d="M0 0 C15.18 0 30.36 0 46 0 C46 0.33 46 0.66 46 1 C30.82 1 15.64 1 0 1 C0 0.67 0 0.34 0 0 Z " fill="#3E3578" transform="translate(9,57)"/>
<path d="M0 0 C0.33 0 0.66 0 1 0 C1 5.61 1 11.22 1 17 C0.01 16.34 -0.98 15.68 -2 15 C-2.36328125 12.03125 -2.36328125 12.03125 -2.3125 8.5 C-2.30863281 7.3346875 -2.30476563 6.169375 -2.30078125 4.96875 C-2 2 -2 2 0 0 Z " fill="#E0E0E1" transform="translate(57,25)"/>
<path d="M0 0 C2.64 0 5.28 0 8 0 C7.67 1.32 7.34 2.64 7 4 C4.69 4 2.38 4 0 4 C0 2.68 0 1.36 0 0 Z " fill="#6482B1" transform="translate(16,38)"/>
<path d="M0 0 C4.875 0.875 4.875 0.875 6 2 C6.1875 4.9375 6.1875 4.9375 6 8 C4 10 4 10 1.375 10.125 C0.59125 10.08375 -0.1925 10.0425 -1 10 C-0.360625 9.7525 0.27875 9.505 0.9375 9.25 C3.11372785 8.17109991 3.11372785 8.17109991 4 6.125 C4.23110194 3.77350255 4.23110194 3.77350255 2.0625 1.75 C1.381875 1.1725 0.70125 0.595 0 0 Z " fill="#60D2E0" transform="translate(35,10)"/>
<path d="M0 0 C1.98 0.495 1.98 0.495 4 1 C4 2.32 4 3.64 4 5 C2.35 5 0.7 5 -1 5 C-0.67 3.35 -0.34 1.7 0 0 Z " fill="#62B8E4" transform="translate(20,11)"/>
<path d="M0 0 C2.64 0 5.28 0 8 0 C7.67 0.99 7.34 1.98 7 3 C5.02 3 3.04 3 1 3 C0.67 2.01 0.34 1.02 0 0 Z " fill="#DC9D2F" transform="translate(24,45)"/>
<path d="M0 0 C0.99 0 1.98 0 3 0 C3.33 0.99 3.66 1.98 4 3 C3.01 3.66 2.02 4.32 1 5 C0.34 4.67 -0.32 4.34 -1 4 C-0.67 2.68 -0.34 1.36 0 0 Z " fill="#61B9E3" transform="translate(35,13)"/>
<path d="M0 0 C2.31 0 4.62 0 7 0 C7 0.33 7 0.66 7 1 C4.69 1 2.38 1 0 1 C0 0.67 0 0.34 0 0 Z " fill="#342E66" transform="translate(56,57)"/>
<path d="M0 0 C2.31 0 4.62 0 7 0 C7 0.33 7 0.66 7 1 C4.69 1 2.38 1 0 1 C0 0.67 0 0.34 0 0 Z " fill="#342E66" transform="translate(1,57)"/>
</svg>
