<?xml version="1.0" encoding="UTF-8"?>
<svg version="1.1" xmlns="http://www.w3.org/2000/svg" width="100" height="100">
<path d="M0 0 C0.78890625 -0.00386719 1.5778125 -0.00773437 2.390625 -0.01171875 C3.21046875 -0.00011719 4.0303125 0.01148437 4.875 0.0234375 C6.10476562 0.00603516 6.10476562 0.00603516 7.359375 -0.01171875 C8.54273437 -0.00591797 8.54273437 -0.00591797 9.75 0 C10.46929687 0.00338379 11.18859375 0.00676758 11.9296875 0.01025391 C14.44881889 0.51294202 15.30231282 1.39816141 16.875 3.3984375 C18.0625 6.5859375 18.0625 6.5859375 18.875 9.3984375 C19.53097168 9.38796387 20.18694336 9.37749023 20.86279297 9.36669922 C23.82515658 9.32521247 26.78745916 9.29913488 29.75 9.2734375 C30.78253906 9.25667969 31.81507812 9.23992188 32.87890625 9.22265625 C33.86503906 9.21621094 34.85117188 9.20976562 35.8671875 9.203125 C37.23399658 9.18741455 37.23399658 9.18741455 38.62841797 9.17138672 C40.875 9.3984375 40.875 9.3984375 42.875 11.3984375 C43.12896729 13.48571777 43.12896729 13.48571777 43.13378906 16.09179688 C43.14009338 17.06620728 43.14639771 18.04061768 43.15289307 19.04455566 C43.1488446 20.09977417 43.14479614 21.15499268 43.140625 22.2421875 C43.14253845 23.32222046 43.1444519 24.40225342 43.14642334 25.51501465 C43.14778607 27.80151604 43.14408352 30.08802514 43.13574219 32.37451172 C43.12504412 35.88396505 43.13563473 39.39290643 43.1484375 42.90234375 C43.14711592 45.1197928 43.14455356 47.33724153 43.140625 49.5546875 C43.14467346 50.60990601 43.14872192 51.66512451 43.15289307 52.75231934 C43.14343658 54.21393494 43.14343658 54.21393494 43.13378906 55.70507812 C43.13219788 56.56508423 43.13060669 57.42509033 43.12896729 58.31115723 C42.875 60.3984375 42.875 60.3984375 40.875 62.3984375 C37.91455078 62.65240479 37.91455078 62.65240479 34.0703125 62.65722656 C33.02130768 62.66248352 33.02130768 62.66248352 31.95111084 62.66784668 C29.63397362 62.67666626 27.31714045 62.6708142 25 62.6640625 C23.39339133 62.66540909 21.78678305 62.66734957 20.18017578 62.66986084 C16.81083298 62.6728124 13.44159613 62.66851347 10.07226562 62.65917969 C5.74760506 62.64778508 1.42319271 62.65434439 -2.90145874 62.66632462 C-6.2196643 62.67354238 -9.53781075 62.67125569 -12.85601807 62.66606903 C-14.450867 62.6647323 -16.04572125 62.66638108 -17.64056396 62.67102814 C-19.86729198 62.67609206 -22.09361476 62.66838538 -24.3203125 62.65722656 C-26.22321045 62.65483978 -26.22321045 62.65483978 -28.16455078 62.65240479 C-31.125 62.3984375 -31.125 62.3984375 -33.125 60.3984375 C-33.37896729 58.31115723 -33.37896729 58.31115723 -33.38378906 55.70507812 C-33.39009338 54.73066772 -33.39639771 53.75625732 -33.40289307 52.75231934 C-33.3988446 51.69710083 -33.39479614 50.64188232 -33.390625 49.5546875 C-33.39253845 48.47465454 -33.3944519 47.39462158 -33.39642334 46.28186035 C-33.39778607 43.99535896 -33.39408352 41.70884986 -33.38574219 39.42236328 C-33.37504412 35.91290995 -33.38563473 32.40396857 -33.3984375 28.89453125 C-33.39711592 26.6770822 -33.39455356 24.45963347 -33.390625 22.2421875 C-33.39467346 21.18696899 -33.39872192 20.13175049 -33.40289307 19.04455566 C-33.39658875 18.07014526 -33.39028442 17.09573486 -33.38378906 16.09179688 C-33.38219788 15.23179077 -33.38060669 14.37178467 -33.37896729 13.48571777 C-33.125 11.3984375 -33.125 11.3984375 -31.125 9.3984375 C-28.5 9.2734375 -28.5 9.2734375 -26.125 9.3984375 C-26.125 7.4184375 -26.125 5.4384375 -26.125 3.3984375 C-21.835 3.3984375 -17.545 3.3984375 -13.125 3.3984375 C-13.125 5.3784375 -13.125 7.3584375 -13.125 9.3984375 C-11.805 9.3984375 -10.485 9.3984375 -9.125 9.3984375 C-8.856875 8.4703125 -8.58875 7.5421875 -8.3125 6.5859375 C-6.59474307 1.97511626 -5.02326281 0.02363094 0 0 Z " fill="#1F222B" transform="translate(45.125,18.6015625)"/>
<path d="M0 0 C0.73347656 -0.03738281 1.46695313 -0.07476563 2.22265625 -0.11328125 C4.3671875 -0.1484375 4.3671875 -0.1484375 8.125 0.375 C10.54251621 3.20029003 11.2833972 5.827772 12.125 9.375 C12.78097168 9.36452637 13.43694336 9.35405273 14.11279297 9.34326172 C17.07515658 9.30177497 20.03745916 9.27569738 23 9.25 C24.03253906 9.23324219 25.06507812 9.21648438 26.12890625 9.19921875 C27.11503906 9.19277344 28.10117188 9.18632812 29.1171875 9.1796875 C30.48399658 9.16397705 30.48399658 9.16397705 31.87841797 9.14794922 C34.125 9.375 34.125 9.375 36.125 11.375 C36.37896729 13.3104248 36.37896729 13.3104248 36.38378906 15.70117188 C36.39009338 16.59549927 36.39639771 17.48982666 36.40289307 18.41125488 C36.3988446 19.37897827 36.39479614 20.34670166 36.390625 21.34375 C36.39253845 22.33499878 36.3944519 23.32624756 36.39642334 24.34753418 C36.39778585 26.44572198 36.39408482 28.54391819 36.38574219 30.64208984 C36.37504371 33.86184546 36.38563536 37.08104308 36.3984375 40.30078125 C36.39711592 42.33593874 36.39455355 44.37109588 36.390625 46.40625 C36.39467346 47.37397339 36.39872192 48.34169678 36.40289307 49.33874512 C36.39343658 50.68023621 36.39343658 50.68023621 36.38378906 52.04882812 C36.38219788 52.83777466 36.38060669 53.62672119 36.37896729 54.4395752 C36.125 56.375 36.125 56.375 34.125 58.375 C31.31640625 58.62896729 31.31640625 58.62896729 27.6875 58.63378906 C26.6970166 58.63904602 26.6970166 58.63904602 25.68652344 58.64440918 C23.49924268 58.65322681 21.31228417 58.64737743 19.125 58.640625 C17.60807228 58.64197165 16.09114499 58.64391217 14.57421875 58.64642334 C11.39318742 58.64937464 8.21226831 58.64507684 5.03125 58.63574219 C0.94872098 58.62434757 -3.13354509 58.63090702 -7.21606445 58.64288712 C-10.34897858 58.65010561 -13.48183011 58.64781786 -16.61474609 58.64263153 C-18.12028026 58.641295 -19.62582007 58.64294288 -21.13134766 58.64759064 C-23.23355212 58.65265579 -25.33532758 58.64494627 -27.4375 58.63378906 C-28.63503906 58.63219788 -29.83257812 58.63060669 -31.06640625 58.62896729 C-33.875 58.375 -33.875 58.375 -35.875 56.375 C-36 53.25 -36 53.25 -35.875 50.375 C-31.78158501 50.35030425 -27.68819879 50.33214207 -23.59472656 50.32006836 C-22.20181523 50.3150357 -20.8089092 50.30820902 -19.41601562 50.29956055 C-17.41538754 50.28744848 -15.41472112 50.28229588 -13.4140625 50.27734375 C-12.20959473 50.27210693 -11.00512695 50.26687012 -9.76416016 50.26147461 C-6.875 50.375 -6.875 50.375 -4.875 51.375 C0.32678032 51.82235311 5.43332254 51.82746776 10.125 49.375 C14.78058279 44.25259725 16.47392713 39.54303713 16.41796875 32.66015625 C15.97270448 29.18709494 14.29107292 27.05073714 12.125 24.375 C11.465 23.385 10.805 22.395 10.125 21.375 C5.24983039 19.11577506 0.40792073 18.92066882 -4.875 19.375 C-5.535 19.705 -6.195 20.035 -6.875 20.375 C-9.05324961 20.46059118 -11.23415255 20.48213412 -13.4140625 20.47265625 C-14.71601562 20.46943359 -16.01796875 20.46621094 -17.359375 20.46289062 C-18.73958399 20.45453466 -20.11979232 20.44606971 -21.5 20.4375 C-22.88801926 20.43248501 -24.27604022 20.4279221 -25.6640625 20.42382812 C-29.06775132 20.41200976 -32.47135439 20.39553434 -35.875 20.375 C-35.92899736 18.91707116 -35.96779177 17.45857288 -36 16 C-36.03480469 14.78183594 -36.03480469 14.78183594 -36.0703125 13.5390625 C-35.875 11.375 -35.875 11.375 -33.875 9.375 C-31.62841797 9.05615234 -31.62841797 9.05615234 -28.8671875 8.9609375 C-27.38798828 8.90292969 -27.38798828 8.90292969 -25.87890625 8.84375 C-24.33009766 8.79734375 -24.33009766 8.79734375 -22.75 8.75 C-21.70972656 8.71132813 -20.66945313 8.67265625 -19.59765625 8.6328125 C-17.02361689 8.53835234 -14.44958845 8.45278786 -11.875 8.375 C-11.400625 7.240625 -10.92625 6.10625 -10.4375 4.9375 C-7.95441132 -0.72394218 -5.74133309 0.1098342 0 0 Z " fill="#E69F70" transform="translate(49.875,20.625)"/>
<path d="M0 0 C0.73347656 -0.03738281 1.46695313 -0.07476563 2.22265625 -0.11328125 C4.3671875 -0.1484375 4.3671875 -0.1484375 8.125 0.375 C10.54251621 3.20029003 11.2833972 5.827772 12.125 9.375 C12.78097168 9.36452637 13.43694336 9.35405273 14.11279297 9.34326172 C17.07515658 9.30177497 20.03745916 9.27569738 23 9.25 C24.03253906 9.23324219 25.06507812 9.21648438 26.12890625 9.19921875 C27.11503906 9.19277344 28.10117188 9.18632812 29.1171875 9.1796875 C30.48399658 9.16397705 30.48399658 9.16397705 31.87841797 9.14794922 C34.125 9.375 34.125 9.375 36.125 11.375 C36.3203125 13.7578125 36.3203125 13.7578125 36.25 16.5 C36.23195313 17.41007812 36.21390625 18.32015625 36.1953125 19.2578125 C36.17210938 19.95648438 36.14890625 20.65515625 36.125 21.375 C10.99596774 21.66532258 10.99596774 21.66532258 4.125 19.375 C2.60638245 19.28296257 1.08389574 19.24498716 -0.4375 19.25 C-1.22253906 19.24742188 -2.00757813 19.24484375 -2.81640625 19.2421875 C-4.93938977 19.24523634 -4.93938977 19.24523634 -6.875 20.375 C-9.05324961 20.46059118 -11.23415255 20.48213412 -13.4140625 20.47265625 C-14.71601562 20.46943359 -16.01796875 20.46621094 -17.359375 20.46289062 C-18.73958399 20.45453466 -20.11979232 20.44606971 -21.5 20.4375 C-22.88801926 20.43248501 -24.27604022 20.4279221 -25.6640625 20.42382812 C-29.06775132 20.41200976 -32.47135439 20.39553434 -35.875 20.375 C-35.92899736 18.91707116 -35.96779177 17.45857288 -36 16 C-36.03480469 14.78183594 -36.03480469 14.78183594 -36.0703125 13.5390625 C-35.875 11.375 -35.875 11.375 -33.875 9.375 C-31.62841797 9.05615234 -31.62841797 9.05615234 -28.8671875 8.9609375 C-27.38798828 8.90292969 -27.38798828 8.90292969 -25.87890625 8.84375 C-24.33009766 8.79734375 -24.33009766 8.79734375 -22.75 8.75 C-21.70972656 8.71132813 -20.66945313 8.67265625 -19.59765625 8.6328125 C-17.02361689 8.53835234 -14.44958845 8.45278786 -11.875 8.375 C-11.400625 7.240625 -10.92625 6.10625 -10.4375 4.9375 C-7.95441132 -0.72394218 -5.74133309 0.1098342 0 0 Z " fill="#CBCABC" transform="translate(49.875,20.625)"/>
<path d="M0 0 C4.36492736 2.40706674 5.93942071 4.83284673 7.8125 9.4375 C8.54520346 14.47483626 7.62027557 18.24512573 5.20703125 22.63671875 C1.9113554 26.89247944 -2.54684459 28.17382324 -7.6875 29 C-12.37661747 28.24639184 -15.64727219 26.60297396 -19.1875 23.4375 C-21.96706547 18.74698327 -22.94668986 14.84672773 -22.1875 9.4375 C-20.31691018 5.1127603 -18.19271638 2.13678096 -14.3125 -0.5625 C-9.07768302 -2.23764143 -5.03166659 -2.16576373 0 0 Z " fill="#4F578D" transform="translate(57.1875,42.5625)"/>
<path d="M0 0 C8.58 0 17.16 0 26 0 C23.03 4.455 23.03 4.455 20 9 C19.3565641 14.34051801 18.95067912 17.99183136 22 22.5 C22.66 23.325 23.32 24.15 24 25 C24 25.66 24 26.32 24 27 C24.66 27.33 25.32 27.66 26 28 C17.42 28 8.84 28 0 28 C0 18.76 0 9.52 0 0 Z " fill="#E9A171" transform="translate(14,42)"/>
<path d="M0 0 C0.125 3.375 0.125 3.375 0 7 C-2.79622582 9.79622582 -4.52081318 9.25358491 -8.4375 9.25878906 C-9.4279834 9.26404602 -9.4279834 9.26404602 -10.43847656 9.26940918 C-12.62575732 9.27822681 -14.81271583 9.27237743 -17 9.265625 C-18.51692772 9.26697165 -20.03385501 9.26891217 -21.55078125 9.27142334 C-24.73181258 9.27437464 -27.91273169 9.27007684 -31.09375 9.26074219 C-35.17627902 9.24934757 -39.25854509 9.25590702 -43.34106445 9.26788712 C-46.47397858 9.27510561 -49.60683011 9.27281786 -52.73974609 9.26763153 C-54.24528026 9.266295 -55.75082007 9.26794288 -57.25634766 9.27259064 C-59.35855212 9.27765579 -61.46032758 9.26994627 -63.5625 9.25878906 C-64.76003906 9.25719788 -65.95757812 9.25560669 -67.19140625 9.25396729 C-70 9 -70 9 -72 7 C-72.125 3.875 -72.125 3.875 -72 1 C-67.90658501 0.97530425 -63.81319879 0.95714207 -59.71972656 0.94506836 C-58.32681523 0.9400357 -56.9339092 0.93320902 -55.54101562 0.92456055 C-53.54038754 0.91244848 -51.53972112 0.90729588 -49.5390625 0.90234375 C-48.33459473 0.89710693 -47.13012695 0.89187012 -45.88916016 0.88647461 C-43 1 -43 1 -41 2 C-39.52331663 2.0952699 -38.04224543 2.12985959 -36.5625 2.125 C-35.78003906 2.12757812 -34.99757812 2.13015625 -34.19140625 2.1328125 C-31.82104653 2.08382548 -31.82104653 2.08382548 -29 1 C-27.04456032 0.85017085 -25.08498731 0.75173206 -23.125 0.68359375 C-21.40023437 0.62075195 -21.40023437 0.62075195 -19.640625 0.55664062 C-18.43921875 0.51732422 -17.2378125 0.47800781 -16 0.4375 C-14.79859375 0.39431641 -13.5971875 0.35113281 -12.359375 0.30664062 C-3.67609127 0 -3.67609127 0 0 0 Z " fill="#CDCBBD" transform="translate(86,70)"/>
<path d="M0 0 C4.36492736 2.40706674 5.93942071 4.83284673 7.8125 9.4375 C8.54520346 14.47483626 7.62027557 18.24512573 5.20703125 22.63671875 C1.9113554 26.89247944 -2.54684459 28.17382324 -7.6875 29 C-12.37661747 28.24639184 -15.64727219 26.60297396 -19.1875 23.4375 C-21.96706547 18.74698327 -22.94668986 14.84672773 -22.1875 9.4375 C-20.31691018 5.1127603 -18.19271638 2.13678096 -14.3125 -0.5625 C-9.07768302 -2.23764143 -5.03166659 -2.16576373 0 0 Z M-17.1875 7.4375 C-18.71964888 10.50179776 -18.41688548 13.0540642 -18.1875 16.4375 C-16.54015048 20.06166894 -14.73347317 22.56601416 -11.1875 24.4375 C-7.40533621 24.85009969 -4.94054414 24.76267815 -1.4375 23.25 C2.31428785 20.22772645 3.61849989 17.77125077 4.3125 13 C3.64520551 8.24552675 2.21952151 6.76528845 -1.1875 3.4375 C-8.39356709 1.03547764 -12.06558104 2.31558104 -17.1875 7.4375 Z " fill="#ABB5C6" transform="translate(57.1875,42.5625)"/>
<path d="M0 0 C1.17369141 -0.00386719 1.17369141 -0.00386719 2.37109375 -0.0078125 C4.5625 0.125 4.5625 0.125 7.5625 1.125 C9.78824335 1.34951458 12.01831519 1.53282878 14.25 1.6875 C15.42949219 1.77128906 16.60898438 1.85507812 17.82421875 1.94140625 C19.17966797 2.03228516 19.17966797 2.03228516 20.5625 2.125 C20.5625 2.455 20.5625 2.785 20.5625 3.125 C16.1075 3.62 16.1075 3.62 11.5625 4.125 C12.7690625 5.548125 12.7690625 5.548125 14 7 C17.39213463 11.00097931 17.84366711 13.60557928 17.78515625 18.8046875 C17.30689928 23.7886286 15.00861844 26.67888156 11.5625 30.125 C18.8225 30.455 26.0825 30.785 33.5625 31.125 C33.5625 31.455 33.5625 31.785 33.5625 32.125 C32.40463989 32.16258423 32.40463989 32.16258423 31.22338867 32.20092773 C27.73208819 32.31684007 24.24106078 32.43958824 20.75 32.5625 C19.53505859 32.60181641 18.32011719 32.64113281 17.06835938 32.68164062 C15.90498047 32.72353516 14.74160156 32.76542969 13.54296875 32.80859375 C11.93264771 32.86358032 11.93264771 32.86358032 10.28979492 32.91967773 C7.46938447 33.02041847 7.46938447 33.02041847 4.5625 34.125 C3.04483461 34.24132729 1.5220654 34.29996239 0 34.3125 C-0.78503906 34.32667969 -1.57007813 34.34085938 -2.37890625 34.35546875 C-4.4375 34.125 -4.4375 34.125 -6.4375 32.125 C-3.4375 31.125 -3.4375 31.125 -0.25 31.3125 C4.4722119 31.08026007 7.79736912 30.00820833 11.5625 27.125 C14.38134537 22.45628736 15.23822104 18.53076829 14.5625 13.125 C13.03309369 8.71885326 11.30763284 6.56083242 7.25 4.1875 C2.33653634 2.77175623 -1.56856456 2.50202152 -6.4375 4.125 C-6.4375 3.135 -6.4375 2.145 -6.4375 1.125 C-4.08479407 -0.05135297 -2.616748 -0.00859359 0 0 Z " fill="#373439" transform="translate(49.4375,38.875)"/>
<path d="M0 0 C0.33 0.66 0.66 1.32 1 2 C0.34 3.65 -0.32 5.3 -1 7 C3.29 7.33 7.58 7.66 12 8 C12 8.33 12 8.66 12 9 C-0.21 9.33 -12.42 9.66 -25 10 C-24.67 9.01 -24.34 8.02 -24 7 C-23.01 7 -22.02 7 -21 7 C-21 5.02 -21 3.04 -21 1 C-16.71 1 -12.42 1 -8 1 C-8 2.98 -8 4.96 -8 7 C-6.68 7 -5.36 7 -4 7 C-3.71125 6.21625 -3.4225 5.4325 -3.125 4.625 C-2 2 -2 2 0 0 Z " fill="#323540" transform="translate(40,21)"/>
<path d="M0 0 C0.66 0.33 1.32 0.66 2 1 C1.01 1.99 0.02 2.98 -1 4 C6.26 4.33 13.52 4.66 21 5 C21 5.33 21 5.66 21 6 C20.22809326 6.02505615 19.45618652 6.0501123 18.66088867 6.07592773 C15.16958819 6.19184007 11.67856078 6.31458824 8.1875 6.4375 C6.36508789 6.49647461 6.36508789 6.49647461 4.50585938 6.55664062 C2.76079102 6.61948242 2.76079102 6.61948242 0.98046875 6.68359375 C-0.09307861 6.72025146 -1.16662598 6.75690918 -2.27270508 6.79467773 C-5.09311553 6.89541847 -5.09311553 6.89541847 -8 8 C-9.51766539 8.11632729 -11.0404346 8.17496239 -12.5625 8.1875 C-13.74005859 8.20876953 -13.74005859 8.20876953 -14.94140625 8.23046875 C-17 8 -17 8 -19 6 C-16 5 -16 5 -12.8125 5.1875 C-8.16138701 4.95875674 -3.39931665 3.39931665 0 0 Z " fill="#2A2C35" transform="translate(62,65)"/>
<path d="M0 0 C0.99 0.33 1.98 0.66 3 1 C2.67 1.515625 2.34 2.03125 2 2.5625 C0.08042944 7.24145324 0.67059117 11.05883192 2.3125 15.75 C3.70559887 18.43300524 4.68786791 20.12827402 7 22 C3 22 3 22 1.515625 20.6015625 C-1.98466779 15.13505586 -3.0439684 10.46161492 -2 4 C-0.97265625 1.703125 -0.97265625 1.703125 0 0 Z " fill="#39353B" transform="translate(35,47)"/>
<path d="M0 0 C3.3 0 6.6 0 10 0 C10 1.65 10 3.3 10 5 C6.7 5 3.4 5 0 5 C0 3.35 0 1.7 0 0 Z " fill="#21232C" transform="translate(68,33)"/>
<path d="M0 0 C1.65 0.33 3.3 0.66 5 1 C4.67 2.65 4.34 4.3 4 6 C2.35 5.67 0.7 5.34 -1 5 C-0.67 3.35 -0.34 1.7 0 0 Z " fill="#7E818E" transform="translate(52,50)"/>
<path d="M0 0 C1.17369141 -0.00386719 1.17369141 -0.00386719 2.37109375 -0.0078125 C4.5625 0.125 4.5625 0.125 7.5625 1.125 C7.2325 2.115 6.9025 3.105 6.5625 4.125 C5.5725 3.795 4.5825 3.465 3.5625 3.125 C-0.12132769 2.99343473 -2.92803585 2.95517862 -6.4375 4.125 C-6.4375 3.135 -6.4375 2.145 -6.4375 1.125 C-4.08479407 -0.05135297 -2.616748 -0.00859359 0 0 Z " fill="#363840" transform="translate(49.4375,38.875)"/>
<path d="M0 0 C4.29 0 8.58 0 13 0 C13 0.33 13 0.66 13 1 C8.545 1.495 8.545 1.495 4 2 C4.99 3.32 5.98 4.64 7 6 C6.01 6.495 6.01 6.495 5 7 C3.29115995 5.37660195 1.62553283 3.70680947 0 2 C0 1.34 0 0.68 0 0 Z " fill="#242630" transform="translate(57,41)"/>
<path d="M0 0 C2.64 0 5.28 0 8 0 C8 0.99 8 1.98 8 3 C5.36 3 2.72 3 0 3 C0 2.01 0 1.02 0 0 Z " fill="#D4DFF2" transform="translate(69,34)"/>
</svg>
