<svg xmlns="http://www.w3.org/2000/svg" width="25" height="24" fill="none" viewBox="0 0 25 24" id="nuke">
  <rect width="24" height="24" x=".463" fill="url(#paint0_linear_302_5034)" rx="8"></rect>
  <path fill="#fff" fill-rule="evenodd" d="M20 12C20 16.4183 16.4183 20 12 20C7.58172 20 4 16.4183 4 12C4 7.58172 7.58172 4 12 4C16.4183 4 20 7.58172 20 12ZM13.9591 6.1352C13.8481 6.09817 13.7263 6.11673 13.6313 6.18506C13.5365 6.2534 13.4803 6.36319 13.4803 6.48012V8.00517C13.4803 8.206 13.3175 8.36881 13.1167 8.36881H12.2908C12.1975 8.36881 12.1077 8.33292 12.0401 8.26856L10.0315 6.35668C9.92738 6.25763 9.77475 6.22913 9.64195 6.28397C8.07347 6.93168 6.83015 8.20565 6.22316 9.79493C6.18047 9.90671 6.19549 10.0323 6.26335 10.1309C6.33121 10.2294 6.4432 10.2883 6.56286 10.2883H10.7245C10.8278 10.2883 10.9262 10.3322 10.9951 10.409L13.3729 13.0579C13.4372 13.1293 13.4704 13.2233 13.4655 13.3192L13.2496 17.5734C13.2436 17.6907 13.2948 17.8036 13.3868 17.8767C13.4788 17.9497 13.6005 17.9737 13.7134 17.9412C15.4511 17.4409 16.8737 16.1999 17.6183 14.5821C17.6811 14.4457 17.6535 14.2847 17.549 14.1769L15.7454 12.3167C15.6796 12.2489 15.6428 12.1581 15.6428 12.0636V10.6519C15.6428 10.4511 15.8056 10.2883 16.0064 10.2883H17.4371C17.5568 10.2883 17.6688 10.2294 17.7367 10.1309C17.8045 10.0323 17.8195 9.90671 17.7768 9.79493C17.1193 8.07333 15.7149 6.72146 13.9591 6.1352ZM13.958 11.29C13.5727 11.4037 13.1487 11.1174 13.011 10.6505C12.8732 10.1837 13.0737 9.71305 13.459 9.59934C13.8442 9.48564 14.2682 9.77193 14.406 10.2388C14.5438 10.7057 14.3432 11.1763 13.958 11.29Z" clip-rule="evenodd"></path>
  <defs>
    <linearGradient id="paint0_linear_302_5034" x1=".463" x2="24.463" y1="12" y2="12" gradientUnits="userSpaceOnUse">
      <stop stop-color="#ED6D6B"></stop>
      <stop offset="1" stop-color="#F0B076"></stop>
    </linearGradient>
  </defs>
</svg>
