<?xml version="1.0" encoding="utf-8"?>
<!-- Generator: Adobe Illustrator 28.0.0, SVG Export Plug-In . SVG Version: 6.00 Build 0)  -->
<svg version="1.1" id="Layer_1" xmlns="http://www.w3.org/2000/svg" xmlns:xlink="http://www.w3.org/1999/xlink" x="0px" y="0px"
	 viewBox="0 0 1000 1000" style="enable-background:new 0 0 1000 1000;" xml:space="preserve">
<style type="text/css">
	.st0{fill:#00213B;}
	.st1{fill:#00A8F9;}
</style>
<g>
	<path class="st0" d="M944.28,1000H55.72C24.94,1000,0,975.06,0,944.28V55.72C0,24.94,24.94,0,55.72,0h888.57
		C975.06,0,1000,24.94,1000,55.72v888.57C1000,975.06,975.06,1000,944.28,1000z"/>
	<g>
		<path class="st1" d="M387.59,286.37h-78.83h-41.05h-41.05v433.06h82.1V579.48h78.83c80.94,0,146.56-65.62,146.56-146.56v0
			C534.15,351.98,468.53,286.37,387.59,286.37z M387.59,495.76h-78.83V370.08h78.83c34.71,0,62.84,28.13,62.84,62.84
			S422.3,495.76,387.59,495.76z"/>
		<path class="st1" d="M719.71,514.07c-47.59-16.96-55.27-25.71-55.27-40.11c0-17.12,16.1-28.19,41-28.19
			c31.13,0,53.93,11.48,62.29,16.42l18.9,11.17l27.89-75.88l-12.39-6.87c-25.96-14.39-60.67-22.64-95.24-22.64
			c-80.36,0-138.7,47.42-138.7,112.77c0,33.57,18.13,79.64,104.31,108.36c49.7,17.16,53.65,29.91,53.65,44.79
			c0,29.11-35.26,32.25-50.42,32.25c-27.48,0-57.82-10.9-74.37-21.02l-19.29-11.8l-27.58,78.54l12.28,6.76
			c28.47,15.66,67.66,24.64,107.51,24.64c90.42,0,148.84-45.06,148.84-114.8C823.12,559.73,767.86,531.22,719.71,514.07z"/>
	</g>
</g>
</svg>
